<svg
    width="24"
    height="25"
    viewBox="0 0 24 25"
    fill="none"
    xmlns="http://www.w3.org/2000/svg"
>
    <g clip-path="url(#clip0_1126_177)">
        <g clip-path="url(#clip1_1126_177)">
            <g clip-path="url(#clip2_1126_177)">
                <path
                    d="M12 3.25C12.1692 3.24982 12.3334 3.30692 12.466 3.412L19.966 9.362C20.0546 9.43226 20.1262 9.52165 20.1754 9.62347C20.2245 9.72529 20.2501 9.83692 20.25 9.95V19.3C20.2537 19.9452 20.0013 20.5655 19.5482 21.0249C19.0951 21.4842 18.4782 21.745 17.833 21.75H6.16701C5.52181 21.745 4.90495 21.4842 4.45182 21.0249C3.99868 20.5655 3.74628 19.9452 3.75001 19.3V9.95C3.74996 9.83692 3.77548 9.72529 3.82466 9.62347C3.87384 9.52165 3.94541 9.43226 4.03401 9.362L11.534 3.412C11.6666 3.30692 11.8308 3.24982 12 3.25ZM18.75 10.312L12 4.957L5.25001 10.312V19.3C5.24599 19.5475 5.34027 19.7864 5.51216 19.9645C5.68406 20.1426 5.91955 20.2453 6.16701 20.25H17.833C18.0805 20.2453 18.316 20.1426 18.4879 19.9645C18.6598 19.7864 18.754 19.5475 18.75 19.3V10.312Z"
                    fill="#BFBFBF"
                />
                <path
                    d="M14.5 21.75C14.3011 21.75 14.1103 21.671 13.9697 21.5303C13.829 21.3897 13.75 21.1989 13.75 21V14.75H10.25V21C10.25 21.1989 10.171 21.3897 10.0303 21.5303C9.88968 21.671 9.69891 21.75 9.5 21.75C9.30109 21.75 9.11032 21.671 8.96967 21.5303C8.82902 21.3897 8.75 21.1989 8.75 21V14C8.75 13.8011 8.82902 13.6103 8.96967 13.4697C9.11032 13.329 9.30109 13.25 9.5 13.25H14.5C14.6989 13.25 14.8897 13.329 15.0303 13.4697C15.171 13.6103 15.25 13.8011 15.25 14V21C15.25 21.1989 15.171 21.3897 15.0303 21.5303C14.8897 21.671 14.6989 21.75 14.5 21.75Z"
                    fill="#BFBFBF"
                />
            </g>
        </g>
    </g>
    <defs>
        <clipPath id="clip0_1126_177">
            <rect
                width="24"
                height="24"
                fill="white"
                transform="translate(0 0.5)"
            />
        </clipPath>
        <clipPath id="clip1_1126_177">
            <rect
                width="24"
                height="24"
                fill="white"
                transform="translate(0 0.5)"
            />
        </clipPath>
        <clipPath id="clip2_1126_177">
            <rect
                width="24"
                height="24"
                fill="white"
                transform="translate(0 0.5)"
            />
        </clipPath>
    </defs>
</svg>
