<svg width="10" height="13" viewBox="0 0 10 13" fill="none" xmlns="http://www.w3.org/2000/svg">
<path d="M4.99831 12.3777C4.90456 12.3369 4.79518 12.2718 4.6858 12.191C3.77955 11.5236 2.96705 10.6668 2.02434 9.58517C0.960112 8.37077 0.361152 6.79524 0.333374 5.15027C0.472263 2.72318 2.42018 0.822144 4.77088 0.822144C4.83685 0.822144 4.90977 0.823877 4.99831 0.828224C5.08685 0.823877 5.15976 0.822144 5.22574 0.822144C7.57986 0.822144 9.52955 2.72318 9.66848 5.15027C9.64413 6.78742 9.04342 8.36205 7.97746 9.58517C7.16671 10.5165 6.28129 11.4775 5.31254 12.191C5.20664 12.2709 5.09553 12.3369 4.99831 12.3777ZM5.04345 3.7093C4.18754 3.7093 3.49136 4.40635 3.49136 5.26225C3.49136 6.12076 4.18754 6.81867 5.04345 6.81867C5.90281 6.81867 6.60073 6.12076 6.60073 5.26225C6.60073 4.40635 5.90281 3.7093 5.04345 3.7093Z" fill="#269386"/>
</svg>
