<svg width="24" height="25" viewBox="0 0 24 25" fill="none" xmlns="http://www.w3.org/2000/svg">
<g clip-path="url(#clip0_1202_1355)">
<g clip-path="url(#clip1_1202_1355)">
<g clip-path="url(#clip2_1202_1355)">
<path d="M19 20.25C18.8011 20.25 18.6103 20.171 18.4697 20.0303C18.329 19.8897 18.25 19.6989 18.25 19.5V17.833C18.2262 17.1264 17.9236 16.4579 17.4082 15.9738C16.8928 15.4898 16.2067 15.2295 15.5 15.25H8.5C7.79325 15.2295 7.10715 15.4898 6.59179 15.9738C6.07643 16.4579 5.77376 17.1264 5.75 17.833V19.5C5.75 19.6989 5.67098 19.8897 5.53033 20.0303C5.38968 20.171 5.19891 20.25 5 20.25C4.80109 20.25 4.61032 20.171 4.46967 20.0303C4.32902 19.8897 4.25 19.6989 4.25 19.5V17.833C4.2739 16.7286 4.73465 15.6786 5.53129 14.9133C6.32793 14.148 7.39548 13.7296 8.5 13.75H15.5C16.6045 13.7296 17.6721 14.148 18.4687 14.9133C19.2654 15.6786 19.7261 16.7286 19.75 17.833V19.5C19.75 19.6989 19.671 19.8897 19.5303 20.0303C19.3897 20.171 19.1989 20.25 19 20.25Z" fill="#BFBFBF"/>
<path d="M11.999 4.75C12.7407 4.75 13.4657 4.96993 14.0824 5.38199C14.6991 5.79404 15.1797 6.37971 15.4636 7.06494C15.7474 7.75016 15.8217 8.50416 15.677 9.23159C15.5323 9.95902 15.1751 10.6272 14.6507 11.1517C14.1262 11.6761 13.458 12.0332 12.7306 12.1779C12.0032 12.3226 11.2492 12.2484 10.564 11.9645C9.87874 11.6807 9.29307 11.2001 8.88101 10.5834C8.46896 9.9667 8.24902 9.24168 8.24902 8.5C8.25008 7.50576 8.64551 6.55255 9.34854 5.84952C10.0516 5.14649 11.0048 4.75106 11.999 4.75ZM11.999 10.75C12.444 10.75 12.879 10.618 13.2491 10.3708C13.6191 10.1236 13.9075 9.77217 14.0778 9.36104C14.248 8.9499 14.2926 8.4975 14.2058 8.06105C14.119 7.62459 13.9047 7.22368 13.59 6.90901C13.2753 6.59434 12.8744 6.38005 12.438 6.29323C12.0015 6.20642 11.5491 6.25097 11.138 6.42127C10.7269 6.59157 10.3755 6.87996 10.1282 7.24997C9.88098 7.61998 9.74902 8.05499 9.74902 8.5C9.74982 9.09649 9.98712 9.66833 10.4089 10.0901C10.8307 10.5119 11.4025 10.7492 11.999 10.75Z" fill="#BFBFBF"/>
</g>
</g>
</g>
<defs>
<clipPath id="clip0_1202_1355">
<rect width="24" height="24" fill="white" transform="translate(0 0.5)"/>
</clipPath>
<clipPath id="clip1_1202_1355">
<rect width="24" height="24" fill="white" transform="translate(0 0.5)"/>
</clipPath>
<clipPath id="clip2_1202_1355">
<rect width="24" height="24" fill="white" transform="translate(0 0.5)"/>
</clipPath>
</defs>
</svg>
